<svg width="171" height="308" viewBox="0 0 171 308" fill="none" xmlns="http://www.w3.org/2000/svg">
<g clip-path="url(#clip0_0_331)">
<rect width="11.3333" height="49.7375" transform="matrix(1 0 0 -1 1 227.21)" fill="#0DBBFC"/>
<rect width="11.3333" height="28.8251" transform="matrix(1 0 0 -1 23.6667 206.297)" fill="#0DBBFC"/>
<rect x="46.3333" y="44.0854" width="11.3333" height="133.387" fill="#0DBBFC"/>
<rect x="69" y="85.345" width="11.3333" height="92.1274" fill="#0DBBFC"/>
<rect x="91.6667" width="11.3333" height="177.472" fill="#0A2640"/>
<rect x="114.333" y="51.9983" width="11.3333" height="125.474" fill="#0DBBFC"/>
<rect x="137" y="27.6947" width="11.3333" height="149.778" fill="#0DBBFC"/>
<rect x="159.667" y="109.083" width="11.3333" height="68.389" fill="#0DBBFC"/>
<path d="M6.624 273.324C5.76 273.324 4.944 273.156 4.176 272.82C3.408 272.484 2.74 272.008 2.172 271.392C1.612 270.776 1.208 270.048 0.96 269.208L3.756 268.452C3.956 269.14 4.32 269.672 4.848 270.048C5.384 270.416 5.972 270.596 6.612 270.588C7.18 270.588 7.688 270.456 8.136 270.192C8.584 269.928 8.936 269.572 9.192 269.124C9.448 268.668 9.576 268.16 9.576 267.6C9.576 266.744 9.3 266.028 8.748 265.452C8.196 264.876 7.484 264.588 6.612 264.588C6.348 264.588 6.088 264.624 5.832 264.696C5.584 264.768 5.344 264.868 5.112 264.996L3.792 262.716L9.6 257.748L9.852 258.444H1.632V255.72H12.228V258.456L7.56 262.944L7.536 262.092C8.584 262.164 9.476 262.456 10.212 262.968C10.956 263.48 11.524 264.14 11.916 264.948C12.316 265.756 12.516 266.64 12.516 267.6C12.516 268.688 12.248 269.664 11.712 270.528C11.184 271.392 10.472 272.076 9.576 272.58C8.688 273.076 7.704 273.324 6.624 273.324ZM21.8413 273.36C20.6173 273.36 19.5373 273.1 18.6013 272.58C17.6653 272.052 16.9333 271.32 16.4053 270.384C15.8853 269.448 15.6253 268.368 15.6253 267.144V261.576C15.6253 260.352 15.8853 259.272 16.4053 258.336C16.9333 257.4 17.6653 256.672 18.6013 256.152C19.5373 255.624 20.6173 255.36 21.8413 255.36C23.0653 255.36 24.1413 255.624 25.0693 256.152C26.0053 256.672 26.7373 257.4 27.2653 258.336C27.7933 259.272 28.0573 260.352 28.0573 261.576V267.144C28.0573 268.368 27.7933 269.448 27.2653 270.384C26.7373 271.32 26.0053 272.052 25.0693 272.58C24.1413 273.1 23.0653 273.36 21.8413 273.36ZM21.8413 270.612C22.4493 270.612 23.0013 270.468 23.4973 270.18C23.9933 269.884 24.3853 269.492 24.6733 269.004C24.9613 268.508 25.1053 267.956 25.1053 267.348V261.36C25.1053 260.744 24.9613 260.192 24.6733 259.704C24.3853 259.208 23.9933 258.816 23.4973 258.528C23.0013 258.232 22.4493 258.084 21.8413 258.084C21.2333 258.084 20.6813 258.232 20.1853 258.528C19.6893 258.816 19.2973 259.208 19.0093 259.704C18.7213 260.192 18.5773 260.744 18.5773 261.36V267.348C18.5773 267.956 18.7213 268.508 19.0093 269.004C19.2973 269.492 19.6893 269.884 20.1853 270.18C20.6813 270.468 21.2333 270.612 21.8413 270.612ZM33.8222 273L31.9022 271.08L47.2742 255.72L49.1942 257.652L33.8222 273ZM45.5942 273.36C44.8022 273.36 44.0782 273.168 43.4222 272.784C42.7742 272.392 42.2542 271.872 41.8622 271.224C41.4702 270.568 41.2742 269.84 41.2742 269.04C41.2742 268.256 41.4742 267.536 41.8742 266.88C42.2742 266.224 42.8022 265.7 43.4582 265.308C44.1142 264.916 44.8262 264.72 45.5942 264.72C46.3862 264.72 47.1102 264.916 47.7662 265.308C48.4222 265.692 48.9422 266.212 49.3262 266.868C49.7182 267.516 49.9142 268.24 49.9142 269.04C49.9142 269.84 49.7182 270.568 49.3262 271.224C48.9422 271.872 48.4222 272.392 47.7662 272.784C47.1102 273.168 46.3862 273.36 45.5942 273.36ZM45.5942 270.888C45.9222 270.888 46.2262 270.804 46.5062 270.636C46.7942 270.468 47.0222 270.244 47.1902 269.964C47.3582 269.684 47.4422 269.376 47.4422 269.04C47.4422 268.704 47.3582 268.396 47.1902 268.116C47.0222 267.836 46.7942 267.612 46.5062 267.444C46.2262 267.276 45.9222 267.192 45.5942 267.192C45.2582 267.192 44.9502 267.276 44.6702 267.444C44.3902 267.612 44.1622 267.836 43.9862 268.116C43.8182 268.396 43.7342 268.704 43.7342 269.04C43.7342 269.376 43.8182 269.684 43.9862 269.964C44.1622 270.244 44.3902 270.468 44.6702 270.636C44.9502 270.804 45.2582 270.888 45.5942 270.888ZM35.5022 264C34.7102 264 33.9862 263.808 33.3302 263.424C32.6742 263.032 32.1502 262.512 31.7582 261.864C31.3742 261.208 31.1822 260.48 31.1822 259.68C31.1822 258.896 31.3822 258.176 31.7822 257.52C32.1822 256.864 32.7102 256.34 33.3662 255.948C34.0222 255.556 34.7342 255.36 35.5022 255.36C36.2942 255.36 37.0142 255.556 37.6622 255.948C38.3182 256.332 38.8422 256.852 39.2342 257.508C39.6262 258.156 39.8222 258.88 39.8222 259.68C39.8222 260.48 39.6262 261.208 39.2342 261.864C38.8422 262.512 38.3182 263.032 37.6622 263.424C37.0142 263.808 36.2942 264 35.5022 264ZM35.5022 261.528C35.8382 261.528 36.1462 261.444 36.4262 261.276C36.7062 261.108 36.9302 260.884 37.0982 260.604C37.2662 260.324 37.3502 260.016 37.3502 259.68C37.3502 259.344 37.2662 259.036 37.0982 258.756C36.9302 258.476 36.7062 258.252 36.4262 258.084C36.1462 257.916 35.8382 257.832 35.5022 257.832C35.1662 257.832 34.8582 257.916 34.5782 258.084C34.2982 258.252 34.0742 258.476 33.9062 258.756C33.7382 259.036 33.6542 259.344 33.6542 259.68C33.6542 260.016 33.7382 260.324 33.9062 260.604C34.0742 260.884 34.2982 261.108 34.5782 261.276C34.8582 261.444 35.1662 261.528 35.5022 261.528Z" fill="#0A2640"/>
<path d="M0.98 302V291.92H1.925L5.887 300.397L9.828 291.92H10.787V301.993H9.807V294.216L6.216 302H5.551L1.967 294.216V302H0.98ZM15.9085 302.21C15.1572 302.21 14.5155 302.04 13.9835 301.699C13.4515 301.358 13.0432 300.887 12.7585 300.285C12.4738 299.683 12.3315 298.992 12.3315 298.213C12.3315 297.42 12.4762 296.724 12.7655 296.127C13.0548 295.53 13.4655 295.065 13.9975 294.734C14.5342 294.398 15.1712 294.23 15.9085 294.23C16.6645 294.23 17.3085 294.4 17.8405 294.741C18.3772 295.077 18.7855 295.546 19.0655 296.148C19.3502 296.745 19.4925 297.434 19.4925 298.213C19.4925 299.006 19.3502 299.704 19.0655 300.306C18.7808 300.903 18.3702 301.37 17.8335 301.706C17.2968 302.042 16.6552 302.21 15.9085 302.21ZM15.9085 301.223C16.7485 301.223 17.3738 300.945 17.7845 300.39C18.1952 299.83 18.4005 299.104 18.4005 298.213C18.4005 297.298 18.1928 296.57 17.7775 296.029C17.3668 295.488 16.7438 295.217 15.9085 295.217C15.3438 295.217 14.8772 295.345 14.5085 295.602C14.1445 295.854 13.8715 296.206 13.6895 296.659C13.5122 297.107 13.4235 297.625 13.4235 298.213C13.4235 299.123 13.6335 299.853 14.0535 300.404C14.4735 300.95 15.0918 301.223 15.9085 301.223ZM21.0366 302V294.44H21.9606V296.26L21.7786 296.022C21.8626 295.798 21.9723 295.593 22.1076 295.406C22.243 295.215 22.39 295.058 22.5486 294.937C22.7446 294.764 22.9733 294.634 23.2346 294.545C23.496 294.452 23.7596 294.398 24.0256 294.384C24.2916 294.365 24.5343 294.384 24.7536 294.44V295.406C24.4783 295.336 24.1773 295.32 23.8506 295.357C23.524 295.394 23.223 295.525 22.9476 295.749C22.6956 295.945 22.5066 296.181 22.3806 296.456C22.2546 296.727 22.1706 297.016 22.1286 297.324C22.0866 297.627 22.0656 297.928 22.0656 298.227V302H21.0366ZM29.1438 302.21C28.4065 302.21 27.7672 302.047 27.2258 301.72C26.6892 301.393 26.2715 300.934 25.9728 300.341C25.6742 299.748 25.5248 299.053 25.5248 298.255C25.5248 297.429 25.6718 296.715 25.9658 296.113C26.2598 295.511 26.6728 295.047 27.2048 294.72C27.7415 294.393 28.3738 294.23 29.1018 294.23C29.8485 294.23 30.4855 294.403 31.0128 294.748C31.5402 295.089 31.9392 295.579 32.2098 296.218C32.4805 296.857 32.6042 297.62 32.5808 298.507H31.5308V298.143C31.5122 297.163 31.2998 296.423 30.8938 295.924C30.4925 295.425 29.9045 295.175 29.1298 295.175C28.3178 295.175 27.6948 295.439 27.2608 295.966C26.8315 296.493 26.6168 297.245 26.6168 298.22C26.6168 299.172 26.8315 299.912 27.2608 300.439C27.6948 300.962 28.3085 301.223 29.1018 301.223C29.6432 301.223 30.1145 301.099 30.5158 300.852C30.9218 300.6 31.2415 300.238 31.4748 299.767L32.4338 300.138C32.1352 300.796 31.6942 301.307 31.1108 301.671C30.5322 302.03 29.8765 302.21 29.1438 302.21ZM26.2528 298.507V297.646H32.0278V298.507H26.2528ZM37.077 293.005V291.85H38.106V293.005H37.077ZM37.077 302V294.44H38.106V302H37.077ZM45.6646 302V298.143C45.6646 297.723 45.6249 297.338 45.5456 296.988C45.4663 296.633 45.3379 296.325 45.1606 296.064C44.9879 295.798 44.7616 295.593 44.4816 295.448C44.2063 295.303 43.8703 295.231 43.4736 295.231C43.1096 295.231 42.7876 295.294 42.5076 295.42C42.2323 295.546 41.9989 295.728 41.8076 295.966C41.6209 296.199 41.4786 296.484 41.3806 296.82C41.2826 297.156 41.2336 297.539 41.2336 297.968L40.5056 297.807C40.5056 297.032 40.6409 296.381 40.9116 295.854C41.1823 295.327 41.5556 294.928 42.0316 294.657C42.5076 294.386 43.0536 294.251 43.6696 294.251C44.1223 294.251 44.5166 294.321 44.8526 294.461C45.1933 294.601 45.4803 294.79 45.7136 295.028C45.9516 295.266 46.1429 295.539 46.2876 295.847C46.4323 296.15 46.5373 296.475 46.6026 296.82C46.6679 297.161 46.7006 297.501 46.7006 297.842V302H45.6646ZM40.1976 302V294.44H41.1286V296.302H41.2336V302H40.1976ZM51.5984 302.21C50.8378 302.21 50.1938 302.04 49.6664 301.699C49.1391 301.358 48.7378 300.889 48.4624 300.292C48.1918 299.69 48.0518 298.999 48.0424 298.22C48.0518 297.427 48.1964 296.731 48.4764 296.134C48.7564 295.532 49.1601 295.065 49.6874 294.734C50.2148 294.398 50.8541 294.23 51.6054 294.23C52.3708 294.23 53.0358 294.417 53.6004 294.79C54.1698 295.163 54.5594 295.674 54.7694 296.323L53.7614 296.645C53.5841 296.192 53.3018 295.842 52.9144 295.595C52.5318 295.343 52.0931 295.217 51.5984 295.217C51.0431 295.217 50.5834 295.345 50.2194 295.602C49.8554 295.854 49.5848 296.206 49.4074 296.659C49.2301 297.112 49.1391 297.632 49.1344 298.22C49.1438 299.125 49.3538 299.853 49.7644 300.404C50.1751 300.95 50.7864 301.223 51.5984 301.223C52.1118 301.223 52.5481 301.106 52.9074 300.873C53.2714 300.635 53.5468 300.29 53.7334 299.837L54.7694 300.145C54.4894 300.817 54.0788 301.33 53.5374 301.685C52.9961 302.035 52.3498 302.21 51.5984 302.21ZM59.1663 302.21C58.415 302.21 57.7733 302.04 57.2413 301.699C56.7093 301.358 56.301 300.887 56.0163 300.285C55.7316 299.683 55.5893 298.992 55.5893 298.213C55.5893 297.42 55.734 296.724 56.0233 296.127C56.3126 295.53 56.7233 295.065 57.2553 294.734C57.792 294.398 58.429 294.23 59.1663 294.23C59.9223 294.23 60.5663 294.4 61.0983 294.741C61.635 295.077 62.0433 295.546 62.3233 296.148C62.608 296.745 62.7503 297.434 62.7503 298.213C62.7503 299.006 62.608 299.704 62.3233 300.306C62.0386 300.903 61.628 301.37 61.0913 301.706C60.5546 302.042 59.913 302.21 59.1663 302.21ZM59.1663 301.223C60.0063 301.223 60.6316 300.945 61.0423 300.39C61.453 299.83 61.6583 299.104 61.6583 298.213C61.6583 297.298 61.4506 296.57 61.0353 296.029C60.6246 295.488 60.0016 295.217 59.1663 295.217C58.6016 295.217 58.135 295.345 57.7663 295.602C57.4023 295.854 57.1293 296.206 56.9473 296.659C56.77 297.107 56.6813 297.625 56.6813 298.213C56.6813 299.123 56.8913 299.853 57.3113 300.404C57.7313 300.95 58.3496 301.223 59.1663 301.223ZM73.3105 302L73.3175 297.037C73.3175 296.454 73.1541 295.996 72.8275 295.665C72.5055 295.329 72.0948 295.161 71.5955 295.161C71.3108 295.161 71.0331 295.226 70.7625 295.357C70.4918 295.488 70.2678 295.698 70.0905 295.987C69.9178 296.276 69.8315 296.654 69.8315 297.121L69.2225 296.946C69.2085 296.405 69.3135 295.931 69.5375 295.525C69.7661 295.119 70.0788 294.804 70.4755 294.58C70.8768 294.351 71.3295 294.237 71.8335 294.237C72.5941 294.237 73.2031 294.473 73.6605 294.944C74.1178 295.411 74.3465 296.043 74.3465 296.841L74.3395 302H73.3105ZM64.2875 302V294.44H65.2115V296.302H65.3235V302H64.2875ZM68.8095 302L68.8165 297.107C68.8165 296.505 68.6555 296.031 68.3335 295.686C68.0161 295.336 67.5961 295.161 67.0735 295.161C66.5508 295.161 66.1285 295.341 65.8065 295.7C65.4845 296.055 65.3235 296.528 65.3235 297.121L64.7075 296.785C64.7075 296.3 64.8218 295.866 65.0505 295.483C65.2791 295.096 65.5918 294.792 65.9885 294.573C66.3851 294.349 66.8355 294.237 67.3395 294.237C67.8201 294.237 68.2471 294.34 68.6205 294.545C68.9985 294.75 69.2948 295.049 69.5095 295.441C69.7241 295.833 69.8315 296.309 69.8315 296.869L69.8245 302H68.8095ZM79.306 302.21C78.5686 302.21 77.9293 302.047 77.388 301.72C76.8513 301.393 76.4336 300.934 76.135 300.341C75.8363 299.748 75.687 299.053 75.687 298.255C75.687 297.429 75.834 296.715 76.128 296.113C76.422 295.511 76.835 295.047 77.367 294.72C77.9036 294.393 78.536 294.23 79.264 294.23C80.0106 294.23 80.6476 294.403 81.175 294.748C81.7023 295.089 82.1013 295.579 82.372 296.218C82.6426 296.857 82.7663 297.62 82.743 298.507H81.693V298.143C81.6743 297.163 81.462 296.423 81.056 295.924C80.6546 295.425 80.0666 295.175 79.292 295.175C78.48 295.175 77.857 295.439 77.423 295.966C76.9936 296.493 76.779 297.245 76.779 298.22C76.779 299.172 76.9936 299.912 77.423 300.439C77.857 300.962 78.4706 301.223 79.264 301.223C79.8053 301.223 80.2766 301.099 80.678 300.852C81.084 300.6 81.4036 300.238 81.637 299.767L82.596 300.138C82.2973 300.796 81.8563 301.307 81.273 301.671C80.6943 302.03 80.0386 302.21 79.306 302.21ZM76.415 298.507V297.646H82.19V298.507H76.415ZM87.2391 293.005V291.85H88.2681V293.005H87.2391ZM87.2391 302V294.44H88.2681V302H87.2391ZM95.8267 302V298.143C95.8267 297.723 95.7871 297.338 95.7077 296.988C95.6284 296.633 95.5001 296.325 95.3227 296.064C95.1501 295.798 94.9237 295.593 94.6437 295.448C94.3684 295.303 94.0324 295.231 93.6357 295.231C93.2717 295.231 92.9497 295.294 92.6697 295.42C92.3944 295.546 92.1611 295.728 91.9697 295.966C91.7831 296.199 91.6407 296.484 91.5427 296.82C91.4447 297.156 91.3957 297.539 91.3957 297.968L90.6677 297.807C90.6677 297.032 90.8031 296.381 91.0737 295.854C91.3444 295.327 91.7177 294.928 92.1937 294.657C92.6697 294.386 93.2157 294.251 93.8317 294.251C94.2844 294.251 94.6787 294.321 95.0147 294.461C95.3554 294.601 95.6424 294.79 95.8757 295.028C96.1137 295.266 96.3051 295.539 96.4497 295.847C96.5944 296.15 96.6994 296.475 96.7647 296.82C96.8301 297.161 96.8627 297.501 96.8627 297.842V302H95.8267ZM90.3597 302V294.44H91.2907V296.302H91.3957V302H90.3597ZM103.204 302.203C102.532 302.203 101.956 302.016 101.475 301.643C100.994 301.27 100.67 300.77 100.502 300.145L101.531 299.9C101.615 300.269 101.809 300.581 102.112 300.838C102.42 301.09 102.782 301.216 103.197 301.216C103.458 301.216 103.722 301.153 103.988 301.027C104.259 300.901 104.471 300.693 104.625 300.404C104.728 300.203 104.786 299.986 104.8 299.753C104.819 299.515 104.828 299.23 104.828 298.899V291.92H105.864V298.899C105.864 299.179 105.862 299.433 105.857 299.662C105.852 299.886 105.827 300.103 105.78 300.313C105.738 300.518 105.656 300.726 105.535 300.936C105.292 301.361 104.966 301.678 104.555 301.888C104.149 302.098 103.699 302.203 103.204 302.203ZM110.867 302.189C110.414 302.189 110.018 302.119 109.677 301.979C109.341 301.839 109.054 301.65 108.816 301.412C108.583 301.174 108.394 300.903 108.249 300.6C108.104 300.292 107.999 299.968 107.934 299.627C107.869 299.282 107.836 298.939 107.836 298.598V294.44H108.872V298.297C108.872 298.712 108.912 299.097 108.991 299.452C109.07 299.807 109.196 300.117 109.369 300.383C109.546 300.644 109.773 300.847 110.048 300.992C110.328 301.137 110.666 301.209 111.063 301.209C111.427 301.209 111.747 301.146 112.022 301.02C112.302 300.894 112.535 300.714 112.722 300.481C112.913 300.243 113.058 299.956 113.156 299.62C113.254 299.279 113.303 298.897 113.303 298.472L114.031 298.633C114.031 299.408 113.896 300.059 113.625 300.586C113.354 301.113 112.981 301.512 112.505 301.783C112.029 302.054 111.483 302.189 110.867 302.189ZM113.408 302V300.138H113.303V294.44H114.332V302H113.408ZM121.749 302V298.143C121.749 297.723 121.709 297.338 121.63 296.988C121.55 296.633 121.422 296.325 121.245 296.064C121.072 295.798 120.846 295.593 120.566 295.448C120.29 295.303 119.954 295.231 119.558 295.231C119.194 295.231 118.872 295.294 118.592 295.42C118.316 295.546 118.083 295.728 117.892 295.966C117.705 296.199 117.563 296.484 117.465 296.82C117.367 297.156 117.318 297.539 117.318 297.968L116.59 297.807C116.59 297.032 116.725 296.381 116.996 295.854C117.266 295.327 117.64 294.928 118.116 294.657C118.592 294.386 119.138 294.251 119.754 294.251C120.206 294.251 120.601 294.321 120.937 294.461C121.277 294.601 121.564 294.79 121.798 295.028C122.036 295.266 122.227 295.539 122.372 295.847C122.516 296.15 122.621 296.475 122.687 296.82C122.752 297.161 122.785 297.501 122.785 297.842V302H121.749ZM116.282 302V294.44H117.213V296.302H117.318V302H116.282ZM127.745 302.21C127.008 302.21 126.369 302.047 125.827 301.72C125.291 301.393 124.873 300.934 124.574 300.341C124.276 299.748 124.126 299.053 124.126 298.255C124.126 297.429 124.273 296.715 124.567 296.113C124.861 295.511 125.274 295.047 125.806 294.72C126.343 294.393 126.975 294.23 127.703 294.23C128.45 294.23 129.087 294.403 129.614 294.748C130.142 295.089 130.541 295.579 130.811 296.218C131.082 296.857 131.206 297.62 131.182 298.507H130.132V298.143C130.114 297.163 129.901 296.423 129.495 295.924C129.094 295.425 128.506 295.175 127.731 295.175C126.919 295.175 126.296 295.439 125.862 295.966C125.433 296.493 125.218 297.245 125.218 298.22C125.218 299.172 125.433 299.912 125.862 300.439C126.296 300.962 126.91 301.223 127.703 301.223C128.245 301.223 128.716 301.099 129.117 300.852C129.523 300.6 129.843 300.238 130.076 299.767L131.035 300.138C130.737 300.796 130.296 301.307 129.712 301.671C129.134 302.03 128.478 302.21 127.745 302.21ZM124.854 298.507V297.646H130.629V298.507H124.854Z" fill="#0A2640"/>
</g>
<defs>
<clipPath id="clip0_0_331">
<rect width="171" height="308" fill="white"/>
</clipPath>
</defs>
</svg>
